<svg width="159" height="120" viewBox="0 0 159 120" fill="none" xmlns="http://www.w3.org/2000/svg">
<g clip-path="url(#clip0_60_773)">
<path d="M63.6238 24.8852H63.0437V9.12285C63.0437 7.92482 62.8059 6.73852 62.3437 5.63169C61.8815 4.52486 61.2041 3.51916 60.3501 2.67202C59.4961 1.82489 58.4823 1.15291 57.3665 0.694439C56.2507 0.235972 55.0548 1.01506e-06 53.847 0H20.1818C17.7427 -4.61245e-06 15.4035 0.961143 13.6788 2.672C11.9541 4.38286 10.9851 6.70329 10.9851 9.12282V95.5965C10.9851 96.7946 11.223 97.9809 11.6852 99.0877C12.1473 100.195 12.8248 101.2 13.6788 102.047C14.5328 102.894 15.5466 103.566 16.6624 104.025C17.7782 104.483 18.9741 104.719 20.1818 104.719H53.847C56.2861 104.719 58.6253 103.758 60.3501 102.047C62.0748 100.337 63.0437 98.0161 63.0437 95.5966V36.1052H63.6238V24.8852Z" fill="#3F3D56"/>
<path d="M54.218 2.37344H49.8236C50.0257 2.86492 50.1028 3.39815 50.0482 3.92617C49.9936 4.45418 49.809 4.96078 49.5105 5.40132C49.2121 5.84186 48.809 6.20283 48.3367 6.45243C47.8645 6.70204 47.3376 6.83261 46.8026 6.83265H27.5162C26.9811 6.83261 26.4542 6.70204 25.982 6.45244C25.5098 6.20283 25.1067 5.84186 24.8082 5.40132C24.5098 4.96078 24.3251 4.45418 24.2705 3.92617C24.2159 3.39815 24.293 2.86492 24.4951 2.37344H20.3907C19.4888 2.37344 18.5957 2.54966 17.7624 2.89204C16.9292 3.23442 16.1721 3.73624 15.5343 4.36887C14.8965 5.0015 14.3907 5.75255 14.0455 6.57912C13.7004 7.40569 13.5227 8.2916 13.5227 9.18628V95.5331C13.5227 96.4278 13.7004 97.3137 14.0455 98.1403C14.3907 98.9668 14.8965 99.7179 15.5343 100.351C16.172 100.983 16.9292 101.485 17.7624 101.827C18.5957 102.17 19.4888 102.346 20.3907 102.346H54.218C55.12 102.346 56.013 102.17 56.8463 101.827C57.6796 101.485 58.4367 100.983 59.0745 100.351C59.7122 99.7179 60.2181 98.9668 60.5633 98.1403C60.9084 97.3137 61.0861 96.4278 61.0861 95.5331V9.18628C61.0861 8.2916 60.9084 7.40569 60.5633 6.57912C60.2181 5.75255 59.7122 5.0015 59.0745 4.36887C58.4367 3.73624 57.6796 3.23442 56.8463 2.89204C56.013 2.54966 55.12 2.37344 54.218 2.37344Z" fill="white"/>
<path d="M74.4142 104.734H0.194802C0.143137 104.734 0.0935883 104.714 0.0570559 104.678C0.0205235 104.641 0 104.592 0 104.541C0 104.49 0.0205235 104.441 0.0570559 104.404C0.0935883 104.368 0.143137 104.348 0.194802 104.348H74.4142C74.4658 104.348 74.5154 104.368 74.5519 104.404C74.5885 104.441 74.609 104.49 74.609 104.541C74.609 104.592 74.5885 104.641 74.5519 104.678C74.5154 104.714 74.4658 104.734 74.4142 104.734Z" fill="#CBCBCB"/>
<path d="M37.3045 66.798C46.3897 66.798 53.7547 59.4922 53.7547 50.4799C53.7547 41.4677 46.3897 34.1618 37.3045 34.1618C28.2193 34.1618 20.8542 41.4677 20.8542 50.4799C20.8542 59.4922 28.2193 66.798 37.3045 66.798Z" fill="#304FFE"/>
<path d="M35.6744 56.7048C35.3043 56.7054 34.944 56.5866 34.648 56.3664L34.6296 56.3528L30.7636 53.4191C30.5845 53.283 30.4343 53.1131 30.3214 52.9194C30.2085 52.7256 30.1352 52.5117 30.1056 52.2898C30.0761 52.0679 30.0909 51.8424 30.1492 51.6262C30.2075 51.41 30.3081 51.2073 30.4454 51.0297C30.5827 50.8521 30.7539 50.7031 30.9492 50.5911C31.1445 50.4791 31.3602 50.4064 31.5839 50.3771C31.8075 50.3478 32.0348 50.3624 32.2528 50.4203C32.4708 50.4781 32.6751 50.5779 32.8541 50.7141L35.3582 52.6189L41.2756 44.9612C41.4128 44.7836 41.5839 44.6346 41.7792 44.5227C41.9744 44.4108 42.19 44.3381 42.4136 44.3088C42.6372 44.2795 42.8644 44.2941 43.0822 44.352C43.3001 44.4098 43.5043 44.5096 43.6833 44.6457L43.6838 44.6461L43.6471 44.6966L43.6848 44.6461C44.0459 44.9213 44.2821 45.3275 44.3417 45.7753C44.4012 46.2232 44.2792 46.6762 44.0025 47.0349L37.0424 56.0382C36.8814 56.2456 36.6744 56.4135 36.4374 56.5287C36.2004 56.644 35.9398 56.7035 35.6759 56.7028L35.6744 56.7048Z" fill="white"/>
<path d="M135.24 106.338C135.44 106.017 135.676 105.719 135.942 105.45C136.052 105.337 136.168 105.23 136.288 105.127C137.015 104.485 137.902 104.046 138.857 103.857C139.812 103.667 140.8 103.733 141.721 104.048C142.641 104.363 143.46 104.916 144.094 105.649C144.728 106.382 145.154 107.269 145.327 108.22C146.131 105.273 144.039 102.37 141.936 100.14C139.833 97.9104 137.428 95.465 137.44 92.4105C137.446 90.7108 138.284 89.1945 139.55 88.0703C139.589 88.0363 139.628 88.0023 139.668 87.9694C141.197 86.6689 143.165 85.9886 145.178 86.0644C148.918 86.2632 152.184 88.7566 154.452 91.7142C158.102 96.4731 159.702 103.153 157.146 108.57C154.898 113.335 150.104 116.164 145.212 118.439C144.528 118.757 143.846 119.065 143.166 119.363C143.162 119.364 143.157 119.368 143.152 119.369C143.119 119.383 143.087 119.397 143.056 119.412C142.915 119.473 142.775 119.535 142.636 119.596L142.7 119.637L142.901 119.767C142.832 119.725 142.763 119.684 142.693 119.642C142.672 119.63 142.65 119.618 142.63 119.605C140.226 118.175 137.79 116.661 136.13 114.428C134.408 112.11 133.716 108.789 135.24 106.338Z" fill="#CBD3FF"/>
<path d="M151.273 100.954C151.805 102.155 152.158 103.426 152.32 104.728C152.447 105.889 152.399 107.062 152.177 108.208C151.7 110.565 150.66 112.773 149.143 114.648C147.999 116.071 146.678 117.344 145.211 118.439C144.528 118.757 143.846 119.065 143.166 119.363C143.161 119.364 143.157 119.368 143.152 119.369C143.119 119.383 143.087 119.397 143.056 119.412C142.915 119.473 142.775 119.535 142.636 119.596L142.7 119.637L142.901 119.767C142.832 119.725 142.763 119.684 142.693 119.642C142.672 119.629 142.65 119.618 142.63 119.605C143.158 117.77 143.236 115.836 142.856 113.965C142.476 112.094 141.65 110.341 140.446 108.852C139.236 107.382 137.693 106.216 135.942 105.45C136.052 105.337 136.168 105.23 136.288 105.127C136.962 105.434 137.608 105.8 138.217 106.219C140.396 107.714 142.033 109.864 142.884 112.353C143.644 114.61 143.739 117.036 143.158 119.346C143.279 119.267 143.4 119.187 143.517 119.107C145.756 117.61 147.819 115.811 149.373 113.606C150.714 111.742 151.571 109.579 151.871 107.309C152.169 104.829 151.543 102.391 150.427 100.178C149.195 97.8104 147.642 95.6214 145.811 93.6714C143.973 91.6677 141.894 89.8946 139.621 88.3918C139.57 88.3576 139.534 88.3051 139.521 88.2452C139.507 88.1854 139.518 88.1228 139.55 88.0703C139.574 88.0226 139.616 87.9863 139.668 87.9694C139.694 87.9628 139.721 87.9622 139.747 87.9674C139.773 87.9727 139.798 87.9838 139.819 87.9999C140.1 88.1856 140.378 88.3729 140.653 88.5659C142.942 90.1735 145.02 92.0569 146.841 94.1729C148.6 96.2125 150.201 98.4785 151.273 100.954Z" fill="white"/>
<path d="M102.279 7.57691C104.208 7.57691 105.773 6.02535 105.773 4.11139C105.773 2.19744 104.208 0.645874 102.279 0.645874C100.35 0.645874 98.7854 2.19744 98.7854 4.11139C98.7854 6.02535 100.35 7.57691 102.279 7.57691Z" fill="#CBD3FF"/>
<path d="M145.72 53.9537C146.896 53.9537 147.85 53.0078 147.85 51.8409C147.85 50.674 146.896 49.728 145.72 49.728C144.543 49.728 143.59 50.674 143.59 51.8409C143.59 53.0078 144.543 53.9537 145.72 53.9537Z" fill="#CBD3FF"/>
<path d="M83.3831 59.7508C84.5595 59.7508 85.5131 58.8049 85.5131 57.638C85.5131 56.4711 84.5595 55.5251 83.3831 55.5251C82.2068 55.5251 81.2532 56.4711 81.2532 57.638C81.2532 58.8049 82.2068 59.7508 83.3831 59.7508Z" fill="#CBD3FF"/>
<path d="M84.5859 120H158.805C158.857 120 158.907 119.98 158.943 119.943C158.98 119.907 159 119.858 159 119.807C159 119.756 158.98 119.706 158.943 119.67C158.907 119.634 158.857 119.614 158.805 119.614H84.5859C84.5343 119.614 84.4847 119.634 84.4482 119.67C84.4116 119.706 84.3911 119.756 84.3911 119.807C84.3911 119.858 84.4116 119.907 84.4482 119.943C84.4847 119.98 84.5343 120 84.5859 120Z" fill="#CBCBCB"/>
<path d="M150.615 18.6734C150.712 17.9871 150.552 17.2891 150.166 16.7118C149.779 16.1344 149.192 15.7179 148.517 15.541C147.841 15.3641 147.123 15.4392 146.5 15.752C145.876 16.0649 145.39 16.5937 145.134 17.2384L139.111 24.0876L140.878 28.9836L146.935 20.9806C147.33 21.1062 147.748 21.1443 148.16 21.0922C148.572 21.0401 148.967 20.8991 149.318 20.6792C149.669 20.4592 149.967 20.1656 150.191 19.8191C150.415 19.4725 150.559 19.0815 150.615 18.6734Z" fill="#FFB7B7"/>
<path d="M125.649 45.3235L145.642 24.1585L142.945 19.9057L117.87 40.9422L125.649 45.3235Z" fill="#3F3D56"/>
<path d="M121.188 32.4638C125.061 32.4638 128.201 29.3492 128.201 25.5072C128.201 21.6653 125.061 18.5507 121.188 18.5507C117.315 18.5507 114.175 21.6653 114.175 25.5072C114.175 29.3492 117.315 32.4638 121.188 32.4638Z" fill="#2F2E41"/>
<path d="M121.751 21.5774C123.26 20.0595 125.086 18.8881 127.101 18.1457C128.394 17.6705 129.802 17.3768 131.154 17.6467C132.506 17.9166 133.785 18.8444 134.162 20.1603C134.47 21.2363 134.152 22.3948 133.673 23.4077C133.194 24.4206 132.555 25.3599 132.168 26.4106C131.773 27.4827 131.655 28.6357 131.823 29.7648C131.991 30.894 132.441 31.9636 133.131 32.8766C133.822 33.7896 134.732 34.517 135.777 34.9928C136.823 35.4687 137.973 35.6779 139.121 35.6014C137.792 35.7781 136.568 36.3973 135.269 36.727C133.971 37.0566 132.438 37.0342 131.473 36.1115C130.452 35.1352 130.432 33.5478 130.481 32.1419C130.555 30.0521 130.628 27.9622 130.701 25.8724C130.739 24.8066 130.771 23.7066 130.383 22.7119C129.996 21.7171 129.075 20.846 128 20.8551C127.185 20.8619 126.464 21.3516 125.811 21.8344C125.157 22.3173 124.466 22.8324 123.654 22.9042C122.842 22.9761 121.916 22.3803 121.977 21.5743L121.751 21.5774Z" fill="#2F2E41"/>
<path d="M94.5521 72.217C93.8788 72.4025 93.1604 72.3366 92.5328 72.0318C91.9053 71.7269 91.4123 71.2043 91.1472 70.563C90.8821 69.9217 90.8634 69.2062 91.0946 68.5521C91.3258 67.898 91.7909 67.3508 92.4016 67.0141L98.4601 60.196L103.584 61.2942L96.3772 68.2967C96.5543 68.669 96.6471 69.0753 96.6488 69.487C96.6505 69.8987 96.5613 70.3058 96.3873 70.6795C96.2133 71.0533 95.9588 71.3846 95.6417 71.6503C95.3246 71.9159 94.9527 72.1094 94.5521 72.217H94.5521Z" fill="#FFB7B7"/>
<path d="M114.485 47.8077L99.3845 66.6096L94.7817 64.5134L112.53 37.1038L114.485 47.8077Z" fill="#3F3D56"/>
<path d="M102.436 104.582L98.8372 104.526L99.27 116.693H102.435L102.436 104.582Z" fill="#FFB7B7"/>
<path d="M103.243 115.668L97.0091 115.668H97.0088C95.9552 115.668 94.9448 116.083 94.1998 116.822C93.4548 117.561 93.0362 118.563 93.0361 119.609V119.737L103.243 119.737L103.243 115.668Z" fill="#2F2E41"/>
<path d="M126.264 101.355L122.332 103.858L130.196 113.243L132.86 111.546L126.264 101.355Z" fill="#FFB7B7"/>
<path d="M132.981 110.251L127.735 113.592L127.735 113.592C126.848 114.157 126.224 115.048 126 116.069C125.775 117.09 125.969 118.158 126.538 119.037L126.608 119.145L135.197 113.675L132.981 110.251Z" fill="#2F2E41"/>
<path d="M127.664 64.201C127.664 64.201 118.929 35.4227 116.122 35.0339C113.315 34.645 108.792 42.418 108.792 42.418C102.928 49.8399 96.8811 73.881 96.8811 73.881C96.8811 73.881 106.961 74.5067 114.33 78.3957C121.699 82.2846 130.395 78.1988 130.395 78.1988L127.664 64.201Z" fill="#3F3D56"/>
<path opacity="0.1" d="M127.664 64.201C127.664 64.201 118.929 35.4227 116.122 35.0339C113.315 34.645 109.941 42.4969 109.941 42.4969C107.019 54.4776 96.8811 73.881 96.8811 73.881C96.8811 73.881 106.961 74.5067 114.33 78.3957C121.699 82.2846 130.395 78.1988 130.395 78.1988L127.664 64.201Z" fill="black"/>
<path d="M120.498 55.5907V70.0516L122.213 90.9992L130.785 106.845L126.694 109.743L115.006 94.6707L110.383 79.7047L103.123 112.835L97.6685 112.449L101.457 66.514L108.645 53.5845L120.498 55.5907Z" fill="#2F2E41"/>
<path d="M111.691 41.6038C108.964 44.3091 111.496 47.2077 111.496 47.2077L108.379 54.1642L120.652 57.4492L124.941 38.4389L122.019 35.3471C116.175 35.1539 116.171 35.0338 116.171 35.0338C115.148 36.0277 111.691 41.6038 111.691 41.6038Z" fill="#304FFE"/>
<path d="M125.435 36.4695C124.878 36.0613 124.244 35.767 123.571 35.6034C122.898 35.4398 122.199 35.4103 121.515 35.5166C120.83 35.6229 120.174 35.8628 119.584 36.2225C118.993 36.5822 118.481 37.0545 118.076 37.6121C114.991 41.8734 112.138 48.7544 116.069 57.3361C122.38 71.1157 127.872 78.1698 130.105 78.1691C130.202 78.1699 130.299 78.1548 130.392 78.1244C131.766 77.6618 133.753 75.3549 134.113 73.3219C134.242 72.5943 134.211 71.5807 133.334 70.8848C130.814 68.8855 126.29 62.6603 124.879 54.4666C124.099 49.9392 125.612 45.815 127.018 43.1527C127.612 42.051 127.785 40.774 127.507 39.5556C127.229 38.3372 126.517 37.2592 125.503 36.519L125.435 36.4695Z" fill="#3F3D56"/>
<path d="M121.548 31.7804C124.05 30.4238 124.969 27.3124 123.602 24.8309C122.234 22.3493 119.098 21.4373 116.596 22.7938C114.094 24.1504 113.175 27.2618 114.543 29.7433C115.91 32.2249 119.047 33.1369 121.548 31.7804Z" fill="#FFB7B7"/>
<path d="M111.812 26.8999H119.266L119.343 25.8383L119.725 26.8999H120.873L121.024 24.7959L121.782 26.8999H124.003V26.7957C124.001 25.3308 123.413 23.9265 122.369 22.8907C121.325 21.8549 119.909 21.2723 118.433 21.2706H117.382C115.905 21.2723 114.489 21.8549 113.445 22.8907C112.401 23.9265 111.814 25.3308 111.812 26.7957V26.8999Z" fill="#2F2E41"/>
<path d="M122.877 30.7158L126.058 29.6919V22.029H120.049L120.198 22.1763C122.268 24.2267 124.569 31.5014 122.877 30.7158Z" fill="#2F2E41"/>
</g>
<defs>
<clipPath id="clip0_60_773">
<rect width="159" height="120" fill="white"/>
</clipPath>
</defs>
</svg>
