<svg width="23" height="24" viewBox="0 0 23 24" fill="none" xmlns="http://www.w3.org/2000/svg">
<path d="M3.98533 19.8539C3.98533 19.8539 3.98533 5.42133 3.98533 3.2536H2.13307C0.96 3.2536 0 4.21387 0 5.38747V21.8669C0 23.0395 0.96 24 2.13307 24H14.8285C16.0019 24 16.9621 23.2499 16.9621 22.3336C16.9621 22.2157 16.9621 22.0997 16.9621 21.988C13.4891 21.988 6.1184 21.988 6.1184 21.988C4.94507 21.988 3.98533 21.028 3.98533 19.8539Z" fill="#B8B8B8"/>
<path d="M17.5552 5.93625H21.5984L16.576 0.653046V4.95678C16.576 5.49678 17.0152 5.93625 17.5552 5.93625Z" fill="#B8B8B8"/>
<path d="M17.5552 7.1776C16.3304 7.1776 15.3344 6.18133 15.3344 4.9568V0H7.35974C6.18641 0 5.22668 0.805067 5.22668 1.78827C5.22668 2.772 5.22668 18.6125 5.22668 18.6125C5.22668 19.7867 6.18641 20.7469 7.35974 20.7469C7.35974 20.7469 18.704 20.7469 19.8773 20.7469H20.0549C21.2283 20.7469 22.1883 19.7867 22.1883 18.6125V7.1776H17.5552ZM18.6835 17.0187H8.73201V15.7776H18.6835V17.0187ZM18.6835 13.7016H8.73201V12.4605H18.6835V13.7016ZM18.6835 10.3845H8.73201V9.1432H18.6835V10.3845Z" fill="#B8B8B8"/>
</svg>
